<svg width="484" height="158" viewBox="0 0 484 158" fill="none" xmlns="http://www.w3.org/2000/svg">
<rect x="55.0127" y="72" width="54.7949" height="55.0141" rx="6" transform="rotate(90 55.0127 72)" fill="#1DC8DB"/>
<rect x="126" y="72" width="54.7949" height="55.0141" rx="6" transform="rotate(90 126 72)" fill="#1AB8C9"/>
<path d="M120 1C123.314 1 126 3.68629 126 7L126 49.7949C126 53.1086 123.314 55.7949 120 55.7949L76.9859 55.7949C73.6722 55.7949 70.9859 53.1086 70.9859 49.7949L70.9859 6.99999C70.9859 3.68628 73.6722 0.999998 76.9859 0.999998L120 1Z" fill="#179EAD"/>
<rect x="55.0137" y="1" width="54.7949" height="55.0141" rx="6" transform="rotate(90 55.0137 1)" fill="#138491"/>
<path d="M174.514 56.1136C169.042 56.1136 164.178 54.9736 159.922 52.6936C155.666 50.4136 152.347 47.1963 149.966 43.0416C147.584 38.8363 146.394 33.9723 146.394 28.4496C146.394 22.927 147.584 18.063 149.966 13.8576C152.347 9.6523 155.666 6.40963 159.922 4.12963C164.178 1.84963 169.042 0.709629 174.514 0.709629C181.81 0.709629 187.915 2.55896 192.83 6.25763V13.7056C188.422 9.8043 182.544 7.85363 175.198 7.85363C171.094 7.85363 167.446 8.68963 164.254 10.3616C161.112 12.0336 158.655 14.4403 156.882 17.5816C155.108 20.6723 154.222 24.295 154.222 28.4496C154.222 32.6043 155.108 36.2523 156.882 39.3936C158.706 42.535 161.188 44.9416 164.33 46.6136C167.522 48.2856 171.144 49.1216 175.198 49.1216C178.947 49.1216 182.291 48.6403 185.23 47.6776C188.219 46.6643 190.98 45.0683 193.514 42.8896V50.4136C188.954 54.2136 182.62 56.1136 174.514 56.1136ZM226.495 56.1136C219.249 56.1136 213.777 54.2643 210.079 50.5656C206.38 46.8163 204.531 41.6736 204.531 35.1376V1.84963H212.283V35.4416C212.283 39.951 213.549 43.371 216.083 45.7016C218.616 47.9816 222.087 49.1216 226.495 49.1216C230.852 49.1216 234.297 47.9816 236.831 45.7016C239.364 43.371 240.631 39.951 240.631 35.4416V1.84963H248.383V35.1376C248.383 41.623 246.533 46.7403 242.835 50.4896C239.136 54.239 233.689 56.1136 226.495 56.1136ZM275.654 1.84963H283.102L304.306 54.9736H296.402L291.082 41.7496H267.598L262.43 54.9736H254.45L275.654 1.84963ZM288.954 35.2896L279.378 10.4376L269.802 35.2896H288.954ZM319.665 8.38563H303.173V1.84963H343.985V8.38563H327.493V54.9736H319.665V8.38563ZM353.859 1.84963H375.215C380.889 1.84963 385.247 3.21763 388.287 5.95363C391.327 8.68963 392.847 12.6923 392.847 17.9616C392.847 21.863 391.808 25.1816 389.731 27.9176C387.653 30.603 384.715 32.427 380.915 33.3896L392.619 54.9736H384.563L373.239 33.9976H361.611V54.9736H353.859V1.84963ZM373.923 27.4616C377.317 27.4616 380.003 26.6763 381.979 25.1056C384.005 23.4843 385.019 21.103 385.019 17.9616C385.019 14.5163 384.031 12.059 382.055 10.5896C380.129 9.1203 377.419 8.38563 373.923 8.38563H361.611V27.4616H373.923ZM429.585 56.1136C424.316 56.1136 419.553 54.9736 415.297 52.6936C411.041 50.363 407.697 47.095 405.265 42.8896C402.833 38.6843 401.617 33.871 401.617 28.4496C401.617 23.0283 402.833 18.215 405.265 14.0096C407.697 9.8043 411.041 6.5363 415.297 4.20563C419.553 1.87496 424.316 0.709629 429.585 0.709629C434.854 0.709629 439.617 1.87496 443.873 4.20563C448.129 6.5363 451.473 9.8043 453.905 14.0096C456.337 18.215 457.553 23.0283 457.553 28.4496C457.553 33.871 456.337 38.6843 453.905 42.8896C451.473 47.095 448.129 50.363 443.873 52.6936C439.617 54.9736 434.854 56.1136 429.585 56.1136ZM429.585 49.1216C433.334 49.1216 436.729 48.2856 439.769 46.6136C442.86 44.891 445.292 42.4843 447.065 39.3936C448.838 36.2523 449.725 32.6043 449.725 28.4496C449.725 24.3456 448.838 20.7483 447.065 17.6576C445.342 14.5163 442.961 12.1096 439.921 10.4376C436.881 8.71497 433.486 7.85363 429.737 7.85363C425.937 7.85363 422.492 8.68963 419.401 10.3616C416.361 12.0336 413.929 14.4403 412.105 17.5816C410.332 20.723 409.445 24.3456 409.445 28.4496C409.445 32.6043 410.332 36.2523 412.105 39.3936C413.878 42.4843 416.285 44.891 419.325 46.6136C422.416 48.2856 425.836 49.1216 429.585 49.1216Z" fill="#8D8D8D"/>
<path d="M164.43 126.54C161.491 126.54 158.603 126.287 155.766 125.78C152.928 125.274 150.598 124.59 148.774 123.728V118.104C153.536 120.182 158.654 121.22 164.126 121.22C168.686 121.22 172.03 120.486 174.158 119.016C176.336 117.547 177.426 115.343 177.426 112.404C177.426 110.327 176.97 108.68 176.058 107.464C175.196 106.248 173.93 105.235 172.258 104.424C170.586 103.563 167.698 102.296 163.594 100.624C158.578 98.5977 154.93 96.3937 152.65 94.0124C150.42 91.5804 149.306 88.5151 149.306 84.8164C149.306 82.1311 150.015 79.7497 151.434 77.6724C152.903 75.5951 154.955 73.9991 157.59 72.8844C160.224 71.7191 163.264 71.1364 166.71 71.1364C169.496 71.1364 172.004 71.3644 174.234 71.8204C176.514 72.2257 178.743 72.9097 180.922 73.8724V79.2684C176.666 77.3937 172.207 76.4564 167.546 76.4564C163.492 76.4564 160.427 77.1911 158.35 78.6604C156.272 80.1297 155.234 82.1817 155.234 84.8164C155.234 86.5897 155.664 88.1097 156.526 89.3764C157.387 90.6431 158.73 91.8084 160.554 92.8724C162.428 93.9364 164.987 95.1017 168.23 96.3684C171.878 97.7871 174.74 99.1297 176.818 100.396C178.895 101.612 180.491 103.183 181.606 105.108C182.771 106.983 183.354 109.415 183.354 112.404C183.354 116.914 181.758 120.41 178.566 122.892C175.374 125.324 170.662 126.54 164.43 126.54ZM213.624 77.2924H196.6V72.2764H236.576V77.2924H219.552V125.4H213.624V77.2924ZM274.115 126.54C267.123 126.54 261.829 124.767 258.231 121.22C254.685 117.674 252.911 112.734 252.911 106.4V72.2764H258.839V106.856C258.839 111.67 260.182 115.267 262.867 117.648C265.553 120.03 269.302 121.22 274.115 121.22C278.929 121.22 282.678 120.03 285.363 117.648C288.049 115.267 289.391 111.67 289.391 106.856V72.2764H295.319V106.4C295.319 112.734 293.521 117.674 289.923 121.22C286.377 124.767 281.107 126.54 274.115 126.54ZM314.736 72.2764H331.152C336.826 72.2764 341.741 73.3404 345.896 75.4684C350.101 77.5964 353.318 80.6364 355.548 84.5884C357.777 88.5404 358.892 93.2017 358.892 98.5724C358.892 107.439 356.358 114.127 351.292 118.636C346.225 123.146 339.106 125.4 329.936 125.4H314.736V72.2764ZM329.556 120.384C337.561 120.384 343.464 118.56 347.264 114.912C351.064 111.214 352.964 105.767 352.964 98.5724C352.964 91.8844 351.114 86.6657 347.416 82.9164C343.717 79.1671 338.27 77.2924 331.076 77.2924H320.664V120.384H329.556ZM377.221 72.2764H383.149V125.4H377.221V72.2764ZM429.26 126.54C424.041 126.54 419.304 125.4 415.048 123.12C410.843 120.79 407.524 117.522 405.092 113.316C402.66 109.111 401.444 104.298 401.444 98.8764C401.444 93.4551 402.66 88.6417 405.092 84.4364C407.524 80.2311 410.843 76.9631 415.048 74.6324C419.253 72.3017 423.991 71.1364 429.26 71.1364C434.529 71.1364 439.267 72.3017 443.472 74.6324C447.677 76.9631 450.996 80.2311 453.428 84.4364C455.86 88.6417 457.076 93.4551 457.076 98.8764C457.076 104.298 455.86 109.111 453.428 113.316C450.996 117.522 447.652 120.79 443.396 123.12C439.191 125.4 434.479 126.54 429.26 126.54ZM429.26 121.22C433.313 121.22 437.012 120.308 440.356 118.484C443.7 116.66 446.335 114.076 448.26 110.732C450.185 107.338 451.148 103.386 451.148 98.8764C451.148 94.4177 450.185 90.5164 448.26 87.1724C446.385 83.7777 443.776 81.1684 440.432 79.3444C437.139 77.4697 433.465 76.5324 429.412 76.5324C425.308 76.5324 421.584 77.4444 418.24 79.2684C414.896 81.0924 412.236 83.7017 410.26 87.0964C408.335 90.4911 407.372 94.4177 407.372 98.8764C407.372 103.386 408.335 107.338 410.26 110.732C412.185 114.076 414.82 116.66 418.164 118.484C421.508 120.308 425.207 121.22 429.26 121.22Z" fill="#ABABAB"/>
</svg>
