<svg width="157" height="157" viewBox="0 0 157 157" fill="none" xmlns="http://www.w3.org/2000/svg">
<rect x="55.0127" y="71" width="54.7949" height="55.0141" rx="6" transform="rotate(90 55.0127 71)" fill="#1DC8DB"/>
<rect x="126" y="71" width="54.7949" height="55.0141" rx="6" transform="rotate(90 126 71)" fill="#1AB8C9"/>
<path d="M120 -2.62269e-07C123.314 -1.17422e-07 126 2.68629 126 6L126 48.7949C126 52.1086 123.314 54.7949 120 54.7949L76.9859 54.7949C73.6722 54.7949 70.9859 52.1086 70.9859 48.7949L70.9859 5.99999C70.9859 2.68628 73.6722 -2.28732e-06 76.9859 -2.14247e-06L120 -2.62269e-07Z" fill="#179EAD"/>
<rect x="55.0137" width="54.7949" height="55.0141" rx="6" transform="rotate(90 55.0137 0)" fill="#138491"/>
</svg>
