<svg width="1024" height="1024" viewBox="0 0 1024 1024" fill="none" xmlns="http://www.w3.org/2000/svg">
<g opacity="0.3">
<g filter="url(#filter0_di_4_2)">
<path fill-rule="evenodd" clip-rule="evenodd" d="M770 462.665C770 454.711 770.003 446.757 769.954 438.803C769.914 432.102 769.837 425.403 769.655 418.705C769.261 404.107 768.401 389.384 765.805 374.949C763.171 360.306 758.872 346.678 752.096 333.373C745.435 320.295 736.735 308.329 726.353 297.955C715.973 287.58 704.004 278.885 690.922 272.228C677.603 265.451 663.96 261.153 649.301 258.521C634.864 255.929 620.138 255.069 605.539 254.675C598.837 254.494 592.135 254.417 585.431 254.375C577.472 254.327 569.514 254.331 561.555 254.331L469.148 254H400.034L309.262 254.331C301.287 254.331 293.314 254.327 285.34 254.375C278.622 254.417 271.908 254.494 265.192 254.675C250.56 255.069 235.8 255.93 221.329 258.525C206.65 261.157 192.987 265.452 179.651 272.225C166.541 278.883 154.545 287.579 144.144 297.955C133.744 308.328 125.027 320.292 118.354 333.368C111.56 346.679 107.252 360.315 104.613 374.967C102.014 389.396 101.153 404.114 100.757 418.705C100.577 425.403 100.499 432.103 100.458 438.803C100.409 446.758 100 456.639 100 464.593L100.002 554.108L100 623.963L100.413 715.378C100.413 723.343 100.41 731.309 100.458 739.274C100.499 745.984 100.577 752.692 100.758 759.4C101.153 774.016 102.015 788.759 104.617 803.214C107.255 817.877 111.562 831.525 118.351 844.847C125.025 857.943 133.744 869.924 144.144 880.314C154.545 890.703 166.537 899.41 179.644 906.076C192.988 912.863 206.659 917.166 221.346 919.801C235.81 922.397 250.566 923.258 265.192 923.652C271.908 923.834 278.623 923.911 285.341 923.952C293.315 924.001 301.287 923.998 309.262 923.998L400.854 924H470.14L561.555 923.997C569.514 923.997 577.472 924.001 585.431 923.952C592.135 923.911 598.837 923.834 605.539 923.652C620.143 923.257 634.874 922.396 649.318 919.798C663.969 917.163 677.604 912.86 690.916 906.078C704.001 899.413 715.973 890.704 726.353 880.314C736.732 869.927 745.433 857.946 752.094 844.852C758.873 831.524 763.173 817.869 765.808 803.197C768.401 788.749 769.261 774.01 769.655 759.4C769.837 752.691 769.914 745.983 769.954 739.274C770.004 731.309 770 723.343 770 715.378C770 715.378 769.995 625.576 769.995 623.963V554.035C769.995 552.843 770 462.665 770 462.665Z" fill="url(#paint0_linear_4_2)"/>
</g>
<path d="M617.823 737H419.148C413.312 737 408.58 741.731 408.58 747.568V775.044C408.58 780.881 413.312 785.612 419.148 785.612H617.823C623.66 785.612 628.391 780.881 628.391 775.044V747.568C628.391 741.731 623.66 737 617.823 737Z" fill="#14550B" fill-opacity="0.3"/>
<path d="M272.784 813.566C307.219 813.566 335.134 785.651 335.134 751.216C335.134 716.781 307.219 688.866 272.784 688.866C238.349 688.866 210.434 716.781 210.434 751.216C210.434 785.651 238.349 813.566 272.784 813.566Z" fill="white" stroke="#14550B" stroke-width="5"/>
<path d="M272.784 789.789C294.087 789.789 311.356 772.519 311.356 751.216C311.356 729.913 294.087 712.644 272.784 712.644C251.481 712.644 234.211 729.913 234.211 751.216C234.211 772.519 251.481 789.789 272.784 789.789Z" fill="#14550B"/>
<path d="M272.784 650.822C307.219 650.822 335.134 622.907 335.134 588.472C335.134 554.037 307.219 526.121 272.784 526.121C238.349 526.121 210.434 554.037 210.434 588.472C210.434 622.907 238.349 650.822 272.784 650.822Z" fill="white" stroke="#14550B" stroke-width="5"/>
<path d="M272.784 627.044C294.087 627.044 311.356 609.775 311.356 588.472C311.356 567.169 294.087 549.899 272.784 549.899C251.481 549.899 234.211 567.169 234.211 588.472C234.211 609.775 251.481 627.044 272.784 627.044Z" fill="#14550B"/>
<path d="M272.784 488.077C307.219 488.077 335.134 460.162 335.134 425.727C335.134 391.292 307.219 363.377 272.784 363.377C238.349 363.377 210.434 391.292 210.434 425.727C210.434 460.162 238.349 488.077 272.784 488.077Z" fill="white" stroke="#14550B" stroke-width="5"/>
<path d="M272.784 464.3C294.087 464.3 311.356 447.03 311.356 425.727C311.356 404.424 294.087 387.155 272.784 387.155C251.481 387.155 234.211 404.424 234.211 425.727C234.211 447.03 251.481 464.3 272.784 464.3Z" fill="#14550B"/>
</g>
<g filter="url(#filter1_di_4_2)">
<path fill-rule="evenodd" clip-rule="evenodd" d="M953 275.665C953 267.712 953.003 259.757 952.955 251.803C952.914 245.102 952.837 238.403 952.656 231.705C952.261 217.107 951.401 202.384 948.805 187.949C946.171 173.306 941.872 159.678 935.096 146.373C928.435 133.295 919.735 121.329 909.353 110.955C898.973 100.58 887.004 91.8851 873.922 85.2284C860.603 78.4513 846.96 74.1534 832.301 71.5209C817.864 68.9286 803.138 68.0695 788.539 67.6753C781.837 67.4935 775.135 67.4174 768.431 67.3752C760.472 67.3265 752.514 67.3308 744.555 67.3308L652.148 67H583.034L492.262 67.3308C484.287 67.3308 476.314 67.3265 468.34 67.3752C461.622 67.4174 454.908 67.4935 448.192 67.6753C433.56 68.0695 418.8 68.9297 404.329 71.5251C389.65 74.1565 375.987 78.4524 362.651 85.2253C349.541 91.883 337.545 100.579 327.144 110.955C316.744 121.328 308.027 133.292 301.354 146.368C294.56 159.679 290.252 173.315 287.613 187.967C285.014 202.396 284.153 217.114 283.757 231.705C283.577 238.403 283.499 245.103 283.458 251.803C283.409 259.758 283 269.639 283 277.593L283.002 367.108L283 436.963L283.413 528.379C283.413 536.343 283.41 544.31 283.458 552.274C283.499 558.984 283.577 565.692 283.758 572.4C284.153 587.016 285.015 601.759 287.617 616.214C290.255 630.877 294.562 644.525 301.351 657.847C308.025 670.943 316.744 682.924 327.144 693.314C337.545 703.703 349.537 712.41 362.644 719.076C375.988 725.863 389.659 730.166 404.346 732.801C418.81 735.397 433.566 736.258 448.192 736.652C454.908 736.834 461.623 736.911 468.341 736.952C476.315 737.001 484.287 736.998 492.262 736.998L583.854 737H653.14L744.555 736.997C752.514 736.997 760.472 737.001 768.431 736.952C775.135 736.911 781.837 736.834 788.539 736.652C803.143 736.257 817.875 735.396 832.318 732.798C846.969 730.163 860.604 725.86 873.916 719.078C887.001 712.413 898.973 703.704 909.353 693.314C919.733 682.927 928.433 670.946 935.094 657.852C941.873 644.524 946.173 630.869 948.808 616.197C951.401 601.749 952.261 587.01 952.656 572.4C952.837 565.691 952.914 558.983 952.955 552.274C953.004 544.31 953 536.343 953 528.379C953 528.379 952.995 438.576 952.995 436.963V367.035C952.995 365.843 953 275.665 953 275.665Z" fill="url(#paint1_linear_4_2)"/>
<path d="M820.902 541.495H589.467C583.631 541.495 578.899 546.227 578.899 552.063V579.539C578.899 585.376 583.631 590.107 589.467 590.107H820.902C826.739 590.107 831.47 585.376 831.47 579.539V552.063C831.47 546.227 826.739 541.495 820.902 541.495Z" fill="#D1C483" fill-opacity="0.75"/>
<path d="M455.784 627.623C490.219 627.623 518.134 599.708 518.134 565.273C518.134 530.838 490.219 502.923 455.784 502.923C421.349 502.923 393.434 530.838 393.434 565.273C393.434 599.708 421.349 627.623 455.784 627.623Z" fill="white" fill-opacity="0.75" stroke="#C2B67A" stroke-width="8"/>
<path d="M836.754 378.751H589.467C583.631 378.751 578.899 383.482 578.899 389.319V416.795C578.899 422.631 583.631 427.363 589.467 427.363H836.754C842.59 427.363 847.322 422.631 847.322 416.795V389.319C847.322 383.482 842.59 378.751 836.754 378.751Z" fill="#D1C483" fill-opacity="0.75"/>
<path d="M455.784 464.879C490.219 464.879 518.134 436.963 518.134 402.528C518.134 368.093 490.219 340.178 455.784 340.178C421.349 340.178 393.434 368.093 393.434 402.528C393.434 436.963 421.349 464.879 455.784 464.879Z" fill="white" fill-opacity="0.75" stroke="#C2B67A" stroke-width="8"/>
<path d="M788.142 216.006H589.467C583.631 216.006 578.899 220.738 578.899 226.574V254.05C578.899 259.887 583.631 264.618 589.467 264.618H788.142C793.979 264.618 798.71 259.887 798.71 254.05V226.574C798.71 220.738 793.979 216.006 788.142 216.006Z" fill="#D1C483" fill-opacity="0.75"/>
<path d="M455.784 302.134C490.219 302.134 518.134 274.219 518.134 239.784C518.134 205.349 490.219 177.434 455.784 177.434C421.349 177.434 393.434 205.349 393.434 239.784C393.434 274.219 421.349 302.134 455.784 302.134Z" fill="white" fill-opacity="0.75" stroke="#BAAE70" stroke-width="8"/>
</g>
<defs>
<filter id="filter0_di_4_2" x="90" y="251" width="690" height="693" filterUnits="userSpaceOnUse" color-interpolation-filters="sRGB">
<feFlood flood-opacity="0" result="BackgroundImageFix"/>
<feColorMatrix in="SourceAlpha" type="matrix" values="0 0 0 0 0 0 0 0 0 0 0 0 0 0 0 0 0 0 127 0" result="hardAlpha"/>
<feOffset dy="10"/>
<feGaussianBlur stdDeviation="5"/>
<feColorMatrix type="matrix" values="0 0 0 0 0 0 0 0 0 0 0 0 0 0 0 0 0 0 0.3 0"/>
<feBlend mode="normal" in2="BackgroundImageFix" result="effect1_dropShadow_4_2"/>
<feBlend mode="normal" in="SourceGraphic" in2="effect1_dropShadow_4_2" result="shape"/>
<feColorMatrix in="SourceAlpha" type="matrix" values="0 0 0 0 0 0 0 0 0 0 0 0 0 0 0 0 0 0 127 0" result="hardAlpha"/>
<feOffset dy="-3"/>
<feGaussianBlur stdDeviation="2"/>
<feComposite in2="hardAlpha" operator="arithmetic" k2="-1" k3="1"/>
<feColorMatrix type="matrix" values="0 0 0 0 0 0 0 0 0 0 0 0 0 0 0 0 0 0 0.25 0"/>
<feBlend mode="normal" in2="shape" result="effect2_innerShadow_4_2"/>
</filter>
<filter id="filter1_di_4_2" x="258" y="64" width="720" height="723" filterUnits="userSpaceOnUse" color-interpolation-filters="sRGB">
<feFlood flood-opacity="0" result="BackgroundImageFix"/>
<feColorMatrix in="SourceAlpha" type="matrix" values="0 0 0 0 0 0 0 0 0 0 0 0 0 0 0 0 0 0 127 0" result="hardAlpha"/>
<feOffset dy="25"/>
<feGaussianBlur stdDeviation="12.5"/>
<feColorMatrix type="matrix" values="0 0 0 0 0 0 0 0 0 0 0 0 0 0 0 0 0 0 0.25 0"/>
<feBlend mode="normal" in2="BackgroundImageFix" result="effect1_dropShadow_4_2"/>
<feBlend mode="normal" in="SourceGraphic" in2="effect1_dropShadow_4_2" result="shape"/>
<feColorMatrix in="SourceAlpha" type="matrix" values="0 0 0 0 0 0 0 0 0 0 0 0 0 0 0 0 0 0 127 0" result="hardAlpha"/>
<feOffset dy="-3"/>
<feGaussianBlur stdDeviation="2"/>
<feComposite in2="hardAlpha" operator="arithmetic" k2="-1" k3="1"/>
<feColorMatrix type="matrix" values="0 0 0 0 0 0 0 0 0 0 0 0 0 0 0 0 0 0 0.25 0"/>
<feBlend mode="normal" in2="shape" result="effect2_innerShadow_4_2"/>
</filter>
<linearGradient id="paint0_linear_4_2" x1="435" y1="254" x2="435" y2="924" gradientUnits="userSpaceOnUse">
<stop stop-color="#FEFBC4"/>
<stop offset="1" stop-color="#FFDD9B"/>
</linearGradient>
<linearGradient id="paint1_linear_4_2" x1="618" y1="67" x2="618" y2="737" gradientUnits="userSpaceOnUse">
<stop stop-color="#FFF0A0"/>
<stop offset="1" stop-color="#ECDA7A"/>
</linearGradient>
</defs>
</svg>
