<svg width="1024" height="1024" viewBox="0 0 1024 1024" fill="none" xmlns="http://www.w3.org/2000/svg">
<g clip-path="url(#clip0_3_16)">
<rect width="1024" height="1024" rx="189" fill="url(#paint0_linear_3_16)"/>
<rect x="721" y="878" width="426" height="337" rx="41" transform="rotate(180 721 878)" fill="white" fill-opacity="0.26"/>
<rect x="788" y="793" width="560" height="443" rx="55" transform="rotate(180 788 793)" fill="white" fill-opacity="0.26"/>
<rect x="860" y="695" width="704" height="549" rx="88" transform="rotate(180 860 695)" fill="white" fill-opacity="0.26"/>
<g clip-path="url(#clip1_3_16)">
<path d="M497.128 338.774C499.129 338.774 500.128 337.524 500.503 335.648C504.879 310.015 504.504 307.89 533.005 303.138C534.88 302.888 536.004 301.763 536.004 299.887C536.004 298.012 534.88 296.761 533.005 296.511C504.504 291.76 504.879 289.634 500.503 264.001C500.128 262.125 499.129 261 497.128 261C495.129 261 494.129 262.125 493.754 264.001C489.379 289.634 489.754 291.76 461.253 296.511C459.377 296.761 458.252 298.012 458.252 299.887C458.252 301.763 459.377 302.888 461.253 303.138C489.754 307.89 489.379 310.015 493.754 335.648C494.129 337.524 495.129 338.774 497.128 338.774Z" fill="white"/>
<path d="M418.502 448.933C421.002 448.933 422.877 447.183 423.252 444.682C429.252 401.419 430.252 401.794 474.753 393.291C477.128 392.792 479.003 391.166 479.003 388.54C479.003 385.914 477.128 384.164 474.753 383.788C430.252 377.036 429.127 376.161 423.252 332.522C422.877 329.897 421.002 328.146 418.502 328.146C416.002 328.146 414.127 329.897 413.752 332.647C408.126 375.786 406.501 375.286 362.25 383.788C359.875 384.289 358 385.914 358 388.54C358 391.291 359.875 392.792 362.75 393.291C406.751 400.669 408.126 401.293 413.752 444.433C414.127 447.183 416.002 448.933 418.502 448.933Z" fill="white"/>
<path d="M527.879 628.24C531.754 628.24 534.629 625.615 535.13 621.614C546.13 530.711 557.88 518.707 647.258 509.328C651.382 508.953 654.133 506.077 654.133 502.201C654.133 498.325 651.382 495.324 647.258 494.949C557.88 485.571 546.13 473.568 535.13 382.663C534.629 378.787 531.754 376.036 527.879 376.036C524.005 376.036 521.254 378.787 520.629 382.663C509.629 473.568 497.878 485.571 408.501 494.949C404.376 495.324 401.626 498.325 401.626 502.201C401.626 506.077 404.376 508.953 408.501 509.328C497.628 520.832 508.879 530.835 520.629 621.614C521.254 625.615 524.005 628.24 527.879 628.24Z" fill="white"/>
</g>
<g style="mix-blend-mode:soft-light">
<g filter="url(#filter0_d_3_16)">
<rect x="305.169" y="120" width="407.662" height="67" rx="24" stroke="#303030" stroke-width="37" shape-rendering="crispEdges"/>
</g>
<mask id="mask0_3_16" style="mask-type:alpha" maskUnits="userSpaceOnUse" x="286" y="101" width="446" height="105">
<rect x="305.169" y="120" width="407.662" height="67" rx="24" stroke="#2B2B2B" stroke-width="37"/>
</mask>
<g mask="url(#mask0_3_16)">
<path d="M748.801 149.254H676.861V210.591H341.939V149.254H269.998V82.2535H748.801V149.254Z" fill="#A6A6A6"/>
</g>
</g>
</g>
<defs>
<filter id="filter0_d_3_16" x="277.569" y="97.4" width="462.862" height="122.2" filterUnits="userSpaceOnUse" color-interpolation-filters="sRGB">
<feFlood flood-opacity="0" result="BackgroundImageFix"/>
<feColorMatrix in="SourceAlpha" type="matrix" values="0 0 0 0 0 0 0 0 0 0 0 0 0 0 0 0 0 0 127 0" result="hardAlpha"/>
<feMorphology radius="2" operator="dilate" in="SourceAlpha" result="effect1_dropShadow_3_16"/>
<feOffset dy="5"/>
<feGaussianBlur stdDeviation="3.55"/>
<feComposite in2="hardAlpha" operator="out"/>
<feColorMatrix type="matrix" values="0 0 0 0 0 0 0 0 0 0 0 0 0 0 0 0 0 0 0.25 0"/>
<feBlend mode="normal" in2="BackgroundImageFix" result="effect1_dropShadow_3_16"/>
<feBlend mode="normal" in="SourceGraphic" in2="effect1_dropShadow_3_16" result="shape"/>
</filter>
<linearGradient id="paint0_linear_3_16" x1="512" y1="0" x2="349.46" y2="997.515" gradientUnits="userSpaceOnUse">
<stop stop-color="#5CBFF5"/>
<stop offset="1" stop-color="#196EFB"/>
</linearGradient>
<clipPath id="clip0_3_16">
<rect width="1024" height="1024" fill="white"/>
</clipPath>
<clipPath id="clip1_3_16">
<rect width="300.758" height="397" fill="white" transform="translate(358 261)"/>
</clipPath>
</defs>
</svg>
